<svg width="170" height="59" viewBox="0 0 170 59" fill="none" xmlns="http://www.w3.org/2000/svg">
<path d="M37.8965 10.2403H39.705V22.0371C41.0203 19.8252 43.1576 18.0229 46.6102 18.0229C51.4603 18.0229 54.2553 21.2998 54.2553 25.8874V37.6023H52.4468V26.297C52.4468 22.3647 50.2272 19.7432 46.3636 19.7432C42.5822 19.7432 39.705 22.6105 39.705 26.5428V37.6023H37.8965V10.2403Z" fill="#2B266D"/>
<path d="M76.8617 18.5144H78.9168L70.6141 38.2576C68.8878 42.2718 66.997 43.6645 64.2021 43.6645C62.7224 43.6645 61.6537 43.4187 60.4206 42.8453L61.0783 41.2068C62.0648 41.6984 62.8868 41.9441 64.3665 41.9441C66.3394 41.9441 67.6547 40.7972 69.1344 37.4384L59.8452 18.5144H61.9825L69.9564 35.6361L76.8617 18.5144Z" fill="#2B266D"/>
<path d="M86.4797 32.6869V20.1529H83.6847V18.4325H86.4797V12.2883H88.2882V18.4325H95.029V20.1529H88.2882V32.5231C88.2882 35.2265 89.9323 36.2096 92.1518 36.2096C93.0561 36.2096 93.8781 36.0457 94.9468 35.5542V37.2746C93.9603 37.6842 93.0561 37.93 91.823 37.93C88.9458 37.93 86.4797 36.3734 86.4797 32.6869Z" fill="#2B266D"/>
<path d="M102.838 10.2403H104.647V22.0371C105.962 19.8252 108.1 18.0229 111.552 18.0229C116.402 18.0229 119.197 21.2998 119.197 25.8874V37.6023H117.389V26.297C117.389 22.3647 115.169 19.7432 111.306 19.7432C107.524 19.7432 104.647 22.6105 104.647 26.5428V37.6023H102.838V10.2403Z" fill="#2B266D"/>
<path d="M148.955 18.0229C145.338 18.0229 143.283 19.989 142.05 22.119C141.968 22.2828 141.886 22.3647 141.804 22.5286C141.721 22.4467 141.639 22.2828 141.557 22.119C140.324 19.989 138.269 18.0229 134.652 18.0229C130.131 18.0229 127.253 21.2178 127.253 25.9693V37.5203H129.062V26.297C129.062 22.2009 131.199 19.7432 134.734 19.7432C137.94 19.7432 140.817 22.2009 140.817 26.4608V37.6022H142.626V26.4608C142.626 22.2009 145.421 19.7432 148.709 19.7432C152.244 19.7432 154.381 22.119 154.381 26.297V37.6842H156.19V26.0512C156.354 21.2178 153.559 18.0229 148.955 18.0229Z" fill="#2B266D"/>
<path d="M22.3598 26.3789C26.7988 25.8055 30.087 23.2659 30.087 18.8421C30.087 16.9579 29.3472 15.2375 28.1141 14.0087C26.5522 12.4522 23.9217 11.3872 20.7157 11.3872H9.61798V30.7208H11.5909V13.1895H20.5512C25.3191 13.1895 28.1141 15.4014 28.1141 18.924V19.0059C28.1141 22.7744 24.8259 24.9862 20.469 24.9862H20.2224V26.7885L28.6073 37.6023H31.0735L22.3598 26.3789Z" fill="#2B266D"/>
<path d="M10.6044 38.3395C11.467 38.3395 12.1663 37.6427 12.1663 36.783C12.1663 35.9234 11.467 35.2265 10.6044 35.2265C9.74183 35.2265 9.04254 35.9234 9.04254 36.783C9.04254 37.6427 9.74183 38.3395 10.6044 38.3395Z" fill="#00A7E0"/>
<path d="M76.1218 43.5825H78.0125C79.1634 43.5825 79.9033 44.1559 79.9033 45.2209C79.9033 46.2859 78.999 46.8594 77.9303 46.8594H76.6973V48.6617H76.1218V43.5825ZM78.0125 46.3678C78.8346 46.3678 79.41 45.9582 79.41 45.2209C79.41 44.4836 78.8346 44.1559 78.0125 44.1559H76.6973V46.3678H78.0125Z" fill="#2B266D"/>
<path d="M81.3829 43.5825H81.9584V45.8763H84.9178V43.5825H85.4932V48.6617H84.9178V46.3678H81.9584V48.6617H81.3829V43.5825Z" fill="#2B266D"/>
<path d="M89.2746 43.5006H89.8501L92.1518 48.5798H91.4942L90.9187 47.2691H88.1238L87.5483 48.5798H86.9729L89.2746 43.5006ZM90.6721 46.7775L89.5213 44.156L88.3704 46.7775H90.6721Z" fill="#2B266D"/>
<path d="M93.5493 43.5825H95.7688C96.4265 43.5825 96.9197 43.7463 97.2485 44.074C97.4952 44.3198 97.6596 44.6475 97.6596 45.0571C97.6596 45.8763 97.0841 46.3678 96.2621 46.5317L97.824 48.5797H97.0019L95.5222 46.6136H94.0425V48.5797H93.4671V43.5825H93.5493ZM95.6866 46.1221C96.4265 46.1221 97.0019 45.7125 97.0019 45.0571C97.0019 44.4017 96.5087 44.074 95.6866 44.074H94.1247V46.1221H95.6866Z" fill="#2B266D"/>
<path d="M99.2214 43.5825H99.7969L101.688 46.3678L103.578 43.5825H104.154V48.6617H103.578V44.5656L101.688 47.269L99.7969 44.5656V48.6617H99.2214V43.5825Z" fill="#2B266D"/>
<path d="M107.853 43.5006H108.428L110.73 48.5798H110.072L109.497 47.2691H106.702L106.127 48.5798H105.551L107.853 43.5006ZM109.25 46.7775L108.1 44.156L106.949 46.7775H109.25Z" fill="#2B266D"/>
<path d="M111.634 46.1221C111.634 44.6476 112.703 43.5006 114.183 43.5006C115.087 43.5006 115.662 43.8283 116.156 44.3199L115.745 44.7295C115.334 44.3199 114.84 44.0741 114.183 44.0741C113.032 44.0741 112.21 44.9752 112.21 46.1221C112.21 47.2691 113.032 48.2521 114.183 48.2521C114.84 48.2521 115.334 48.0064 115.827 47.5148L116.238 47.9244C115.745 48.4979 115.087 48.8256 114.183 48.8256C112.703 48.7437 111.634 47.5967 111.634 46.1221Z" fill="#2B266D"/>
<path d="M117.718 43.5825H121.417V44.074H118.293V45.7944H121.088V46.2859H118.293V48.0882H121.417V48.5797H117.718V43.5825Z" fill="#2B266D"/>
<path d="M122.896 46.5317V43.5825H123.472V46.5317C123.472 47.5967 124.047 48.2521 125.034 48.2521C125.938 48.2521 126.596 47.6786 126.596 46.6136V43.6644H127.171V46.5317C127.171 48.0063 126.349 48.7436 125.034 48.7436C123.719 48.7436 122.896 47.9244 122.896 46.5317Z" fill="#2B266D"/>
<path d="M130.213 44.074H128.486V43.5825H132.514V44.074H130.788V48.5797H130.213V44.074Z" fill="#2B266D"/>
<path d="M133.994 43.5825H134.57V48.6617H133.994V43.5825Z" fill="#2B266D"/>
<path d="M136.296 46.1221C136.296 44.6476 137.365 43.5006 138.844 43.5006C139.749 43.5006 140.324 43.8283 140.817 44.3199L140.406 44.7295C139.995 44.3199 139.502 44.0741 138.844 44.0741C137.693 44.0741 136.871 44.9752 136.871 46.1221C136.871 47.2691 137.693 48.2521 138.844 48.2521C139.502 48.2521 139.995 48.0064 140.488 47.5148L140.899 47.9244C140.406 48.4979 139.749 48.8256 138.844 48.8256C137.365 48.7437 136.296 47.5967 136.296 46.1221Z" fill="#2B266D"/>
<path d="M144.27 43.5006H144.845L147.147 48.5798H146.489L145.914 47.2691H143.119L142.544 48.5798H141.968L144.27 43.5006ZM145.667 46.7775L144.516 44.156L143.366 46.7775H145.667Z" fill="#2B266D"/>
<path d="M148.544 43.5825H149.12V48.0882H151.997V48.5797H148.544V43.5825Z" fill="#2B266D"/>
<path d="M153.23 47.9244L153.559 47.5148C154.052 48.0064 154.628 48.2521 155.285 48.2521C155.943 48.2521 156.436 47.9244 156.436 47.351C156.436 46.8594 156.19 46.6137 155.121 46.3679C153.97 46.1221 153.395 45.7125 153.395 44.8933C153.395 44.0741 154.134 43.5006 155.039 43.5006C155.779 43.5006 156.272 43.7464 156.847 44.156L156.518 44.5656C156.025 44.156 155.614 43.9922 155.039 43.9922C154.381 43.9922 153.97 44.3199 153.97 44.8114C153.97 45.3029 154.217 45.5487 155.367 45.7945C156.518 46.0402 157.012 46.4498 157.012 47.2691C157.012 48.1702 156.272 48.7437 155.285 48.7437C154.463 48.7437 153.806 48.416 153.23 47.9244Z" fill="#2B266D"/>
<path d="M156.354 19.8252C156.354 19.4975 156.436 19.1698 156.518 18.924C156.601 18.6783 156.765 18.4325 157.012 18.1867C157.258 18.0229 157.505 17.859 157.751 17.6952C157.998 17.5313 158.327 17.5313 158.656 17.5313C158.985 17.5313 159.231 17.6133 159.56 17.6952C159.889 17.7771 160.053 17.941 160.3 18.1867C160.546 18.3506 160.711 18.5963 160.793 18.924C160.875 19.1698 160.957 19.4975 160.957 19.8252C160.957 20.1529 160.875 20.4805 160.793 20.7263C160.711 20.9721 160.546 21.2178 160.3 21.4636C160.053 21.6274 159.807 21.7913 159.56 21.9551C159.313 22.119 158.985 22.119 158.656 22.119C158.327 22.119 158.08 22.0371 157.751 21.9551C157.423 21.8732 157.258 21.7094 157.012 21.4636C156.765 21.2998 156.601 21.054 156.518 20.7263C156.436 20.3986 156.354 20.1529 156.354 19.8252ZM156.765 19.8252C156.765 20.0709 156.847 20.3986 156.929 20.5625C157.012 20.7263 157.176 20.9721 157.34 21.2178C157.505 21.3817 157.669 21.5455 157.916 21.6274C158.162 21.7094 158.409 21.7913 158.656 21.7913C158.902 21.7913 159.149 21.7094 159.396 21.6274C159.642 21.5455 159.807 21.3817 159.971 21.2178C160.135 21.054 160.3 20.8082 160.382 20.5625C160.464 20.3167 160.546 20.0709 160.546 19.8252C160.546 19.5794 160.464 19.3336 160.382 19.0879C160.3 18.8421 160.135 18.6783 159.971 18.4325C159.807 18.2686 159.56 18.1048 159.396 18.0229C159.149 17.941 158.902 17.859 158.656 17.859C158.409 17.859 158.162 17.941 157.916 18.0229C157.669 18.1048 157.505 18.2686 157.34 18.4325C157.176 18.5963 157.012 18.8421 156.929 19.0879C156.847 19.3336 156.765 19.5794 156.765 19.8252ZM157.834 18.5144H158.82C159.478 18.5144 159.724 18.7602 159.724 19.2517C159.724 19.4975 159.642 19.6613 159.56 19.7432C159.478 19.8252 159.231 19.9071 159.067 19.9071L159.807 21.054H159.396L158.656 19.9071H158.245V21.054H157.834V18.5144ZM158.245 19.6613H158.656C158.738 19.6613 158.82 19.6613 158.902 19.6613C158.985 19.6613 159.067 19.6613 159.149 19.5794C159.231 19.4975 159.231 19.4975 159.313 19.4156C159.313 19.3336 159.396 19.2517 159.396 19.1698C159.396 19.0879 159.396 19.0059 159.313 18.924C159.231 18.8421 159.231 18.8421 159.149 18.7602C159.067 18.7602 159.067 18.6783 158.985 18.6783C158.902 18.6783 158.82 18.6783 158.738 18.6783H158.162V19.6613H158.245Z" fill="#2B266D"/>
</svg>
